<?xml version="1.0" encoding="UTF-8"?><svg id="a" xmlns="http://www.w3.org/2000/svg" viewBox="0 0 1500 385"><defs><style>.b{fill:#777;}.c{fill:#bc1806;}</style></defs><path class="c" d="M272.4,75.27v20.8h-49.39v-20.8c0-1.73-.87-2.6-2.6-2.6H56.62c-1.73,0-2.6,.87-2.6,2.6V239.42c0,1.73,.86,2.6,2.6,2.6H220.4c1.73,0,2.6-.86,2.6-2.6v-50.51h-60.54v-49.02h109.93v99.53c0,14.36-5.08,26.55-15.23,36.58-10.16,10.03-22.41,15.04-36.77,15.04H56.62c-14.36,0-26.55-5.01-36.58-15.04-10.03-10.03-15.04-22.22-15.04-36.58V75.27c0-14.36,5.01-26.55,15.04-36.58,10.03-10.03,22.22-15.04,36.58-15.04H220.4c14.36,0,26.61,5.01,36.77,15.04,10.15,10.03,15.23,22.23,15.23,36.58Z"/><path class="c" d="M311.77,5.08h49.02V239.79c0,1.73,.74,2.6,2.23,2.6h43.45v48.65h-43.45c-14.11,0-26.18-5.01-36.21-15.04-10.03-10.03-15.04-22.1-15.04-36.21V5.08Z"/><path class="c" d="M490.4,75.64h116.24c14.11,0,26.18,5.01,36.21,15.04,10.03,10.03,15.04,22.1,15.04,36.21v112.9c0,14.11-5.01,26.18-15.04,36.21-10.03,10.03-22.1,15.04-36.21,15.04h-116.24c-14.11,0-26.18-5.01-36.21-15.04-10.03-10.03-15.04-22.1-15.04-36.21V126.89c0-14.11,5.01-26.18,15.04-36.21,10.03-10.03,22.1-15.04,36.21-15.04Zm116.24,48.65h-116.24c-1.73,0-2.6,.87-2.6,2.6v112.9c0,1.73,.86,2.6,2.6,2.6h116.24c1.73,0,2.6-.86,2.6-2.6V126.89c0-1.73-.87-2.6-2.6-2.6Z"/><path class="c" d="M854.73,75.64c14.11,0,26.18,5.01,36.21,15.04,10.03,10.03,15.04,22.1,15.04,36.21v112.9c0,14.11-5.01,26.18-15.04,36.21-10.03,10.03-22.1,15.04-36.21,15.04h-167.49V5.08h48.65V75.64h118.84Zm2.6,164.15V126.89c0-1.73-.87-2.6-2.6-2.6h-116.24c-1.74,0-2.6,.87-2.6,2.6v112.9c0,1.73,.86,2.6,2.6,2.6h116.24c1.73,0,2.6-.86,2.6-2.6Z"/><rect class="c" x="934.21" y="136.33" width="48.65" height="154.71"/><polygon class="c" points="1187.87 75.64 1146.35 124.29 1171.09 169.81 1240.97 87.89 1240.97 75.64 1187.87 75.64"/><polygon class="c" points="1105.6 172.17 1018.51 278.79 1018.51 291.04 1071.62 291.04 1130.8 218.21 1105.6 172.17"/><path class="c" d="M1495,126.89v9.28h-48.65v-9.28c0-1.73-.87-2.6-2.6-2.6h-116.24c-1.73,0-2.6,.87-2.6,2.6v29.71c0,1.49,.86,2.23,2.6,2.23h116.24c14.36,0,26.49,5.01,36.4,15.04,9.9,10.03,14.85,22.1,14.85,36.21v29.71c0,14.11-4.95,26.18-14.85,36.21-9.91,10.03-22.04,15.04-36.4,15.04h-116.24c-14.11,0-26.18-5.01-36.21-15.04-10.03-10.03-15.04-22.1-15.04-36.21v-9.28h48.65v9.28c0,1.73,.86,2.6,2.6,2.6h116.24c1.73,0,2.6-.86,2.6-2.6v-29.71c0-1.49-.87-2.23-2.6-2.23h-116.24c-14.11,0-26.18-5.01-36.21-15.04-10.03-10.03-15.04-22.1-15.04-36.21v-29.71c0-14.11,5.01-26.18,15.04-36.21,10.03-10.03,22.1-15.04,36.21-15.04h116.24c14.36,0,26.49,5.01,36.4,15.04,9.9,10.03,14.85,22.1,14.85,36.21Z"/><g><g><rect class="b" x="910.31" y="34.33" width="40.46" height="40.46"/><rect class="b" x="928.84" y="91.43" width="25.51" height="25.51"/><rect class="b" x="963.15" y="60.33" width="25.51" height="25.51"/><rect class="b" x="971.92" y="99.72" width="16.74" height="16.74"/></g><path class="b" d="M918.63,4.2c31.2-2.9,63.5-.35,92.51,12.43,75.4,33.19,123.84,126.16,160.46,196.12,43.54,80.4,113.92,123.28,204.84,129.09,16.42,1.14,33.37,1.16,49.81,.3,20.69-1.08,41.06-3.53,61.71-6.68l.23,.81c-13.96,6.13-28.41,11.23-43.18,15.47-22.29,6.37-45.4,10.63-68.54,12.21-109.05,7.75-196.73-45.45-245.87-142.15-21.81-42.41-44.19-86.03-71.15-124.86-16.27-23.17-34.95-45.03-58.79-60.6-24.32-16.17-53.36-24.02-82.15-30.39l.11-1.75h0Z"/><g><path class="b" d="M65.72,337.37h-19.06v44.51h-9.31v-44.51H18.21v-8.03h47.51v8.03Z"/><path class="b" d="M119.76,381.88h-42.71v-52.54h42.71v8.03h-33.32v13.81h27.55v7.96h-27.55v14.79h33.32v7.96Z"/><path class="b" d="M145.35,381.88c-1.6,0-3.1-.3-4.5-.9-1.4-.6-2.64-1.43-3.72-2.48-1.08-1.05-1.93-2.29-2.55-3.72-.63-1.43-.94-2.94-.94-4.54v-29.2c0-1.55,.31-3.04,.94-4.47,.62-1.43,1.46-2.68,2.51-3.75,1.05-1.08,2.29-1.92,3.72-2.55,1.43-.63,2.94-.94,4.54-.94h22.89c1.55,0,3.04,.31,4.47,.94,1.43,.63,2.68,1.46,3.75,2.51,1.08,1.05,1.93,2.29,2.55,3.72,.62,1.43,.94,2.94,.94,4.54v3.6h-9.38v-2.55c0-1.3-.46-2.41-1.39-3.34-.93-.92-2.04-1.39-3.34-1.39h-18.09c-1.3,0-2.42,.48-3.34,1.43-.93,.95-1.39,2.08-1.39,3.38v26.94c0,1.3,.46,2.43,1.39,3.38,.92,.95,2.04,1.43,3.34,1.43h18.09c1.3,0,2.41-.47,3.34-1.43,.93-.95,1.39-2.08,1.39-3.38v-2.48h9.38v3.6c0,1.6-.31,3.1-.94,4.5-.63,1.4-1.48,2.63-2.55,3.68-1.08,1.05-2.33,1.89-3.75,2.51-1.43,.63-2.91,.94-4.47,.94h-22.89Z"/><path class="b" d="M239.25,329.34v52.54h-9.38v-22.67h-28.6v22.67h-9.31v-52.54h9.31v21.84h28.6v-21.84h9.38Z"/><path class="b" d="M301.54,329.34v52.54h-11.11l-26.87-40.3v40.3h-9.31v-52.54h11.11l26.87,40.31v-40.31h9.31Z"/><path class="b" d="M352.73,329.34c1.55,0,3.04,.3,4.47,.9,1.43,.6,2.68,1.43,3.75,2.48,1.08,1.05,1.93,2.29,2.55,3.72,.62,1.43,.94,2.96,.94,4.62v29.2c0,1.55-.31,3.03-.94,4.43-.63,1.4-1.46,2.64-2.51,3.72-1.05,1.08-2.29,1.93-3.72,2.55-1.43,.63-2.94,.94-4.54,.94h-25.14c-1.6,0-3.1-.3-4.5-.9-1.4-.6-2.64-1.43-3.72-2.48-1.08-1.05-1.93-2.29-2.55-3.72-.63-1.43-.94-2.94-.94-4.54v-29.2c0-1.55,.31-3.04,.94-4.47,.62-1.43,1.46-2.68,2.51-3.75,1.05-1.08,2.29-1.92,3.72-2.55,1.43-.63,2.94-.94,4.54-.94h25.14Zm2.4,12.83c0-1.3-.48-2.43-1.43-3.38-.95-.95-2.08-1.43-3.38-1.43h-20.34c-1.3,0-2.42,.48-3.34,1.43-.93,.95-1.39,2.08-1.39,3.38v26.94c0,1.3,.46,2.43,1.39,3.38,.92,.95,2.04,1.43,3.34,1.43h20.34c1.3,0,2.43-.47,3.38-1.43s1.43-2.08,1.43-3.38v-26.94Z"/><path class="b" d="M388.15,373.85h33.02v8.03h-42.41v-52.54h9.38v44.51Z"/><path class="b" d="M468.77,329.34c1.55,0,3.04,.3,4.47,.9,1.43,.6,2.68,1.43,3.75,2.48,1.08,1.05,1.93,2.29,2.55,3.72,.62,1.43,.94,2.96,.94,4.62v29.2c0,1.55-.31,3.03-.94,4.43-.63,1.4-1.46,2.64-2.51,3.72-1.05,1.08-2.29,1.93-3.72,2.55-1.43,.63-2.94,.94-4.54,.94h-25.14c-1.6,0-3.1-.3-4.5-.9-1.4-.6-2.64-1.43-3.72-2.48-1.08-1.05-1.93-2.29-2.55-3.72-.63-1.43-.94-2.94-.94-4.54v-29.2c0-1.55,.31-3.04,.94-4.47,.62-1.43,1.46-2.68,2.51-3.75,1.05-1.08,2.29-1.92,3.72-2.55,1.43-.63,2.94-.94,4.54-.94h25.14Zm2.4,12.83c0-1.3-.48-2.43-1.43-3.38-.95-.95-2.08-1.43-3.38-1.43h-20.34c-1.3,0-2.42,.48-3.34,1.43-.93,.95-1.39,2.08-1.39,3.38v26.94c0,1.3,.46,2.43,1.39,3.38,.92,.95,2.04,1.43,3.34,1.43h20.34c1.3,0,2.43-.47,3.38-1.43s1.43-2.08,1.43-3.38v-26.94Z"/><path class="b" d="M526.93,373.92c1.3,0,2.43-.47,3.38-1.43s1.43-2.08,1.43-3.38v-8.78h-13.96v-8.03h23.42v17.94c0,1.55-.31,3.03-.94,4.43-.63,1.4-1.46,2.64-2.51,3.72-1.05,1.08-2.29,1.93-3.72,2.55-1.43,.63-2.96,.94-4.61,.94h-23.57c-1.55,0-3.03-.31-4.43-.94-1.4-.62-2.64-1.46-3.72-2.51-1.08-1.05-1.94-2.28-2.59-3.68-.65-1.4-.98-2.9-.98-4.5v-29.2c0-1.55,.31-3.04,.94-4.47,.62-1.43,1.46-2.68,2.51-3.75,1.05-1.08,2.29-1.92,3.72-2.55,1.43-.63,2.94-.94,4.54-.94h23.57c1.55,0,3.04,.31,4.47,.94,1.43,.63,2.68,1.46,3.75,2.51,1.08,1.05,1.94,2.29,2.59,3.72,.65,1.43,.98,2.94,.98,4.54v3.6h-9.46v-2.55c0-1.3-.46-2.41-1.39-3.34-.93-.92-2.04-1.39-3.34-1.39h-18.69c-1.3,0-2.43,.46-3.38,1.39-.95,.93-1.43,2.04-1.43,3.34v27.02c0,1.3,.47,2.43,1.43,3.38,.95,.95,2.08,1.43,3.38,1.43h18.61Z"/><path class="b" d="M562.06,329.34l16.06,25.07,16.14-25.07h10.51l-21.92,33.48v19.06h-9.38v-19.06l-21.99-33.48h10.58Z"/><path class="b" d="M694.46,337.37c-1.3,0-2.43,.48-3.38,1.43-.95,.95-1.43,2.08-1.43,3.38v4.2c0,1.3,.47,2.43,1.43,3.38,.95,.95,2.08,1.43,3.38,1.43h21.39c1.55,0,3.04,.3,4.47,.9,1.43,.6,2.68,1.43,3.75,2.48,1.08,1.05,1.92,2.29,2.55,3.72,.62,1.43,.94,2.94,.94,4.54v7.43c0,1.55-.3,3.03-.9,4.43-.6,1.4-1.43,2.64-2.48,3.72-1.05,1.08-2.29,1.93-3.72,2.55-1.43,.63-2.96,.94-4.62,.94h-24.39c-1.55,0-3.04-.31-4.47-.94-1.43-.62-2.68-1.46-3.75-2.51-1.08-1.05-1.94-2.28-2.59-3.68-.65-1.4-.98-2.9-.98-4.5v-3.6h9.46v2.48c0,1.3,.46,2.43,1.39,3.38,.93,.95,2.04,1.43,3.34,1.43h19.59c1.3,0,2.41-.47,3.34-1.43,.92-.95,1.39-2.08,1.39-3.38v-5.18c0-1.3-.46-2.43-1.39-3.38-.93-.95-2.04-1.43-3.34-1.43h-21.47c-1.55,0-3.04-.3-4.47-.9-1.43-.6-2.68-1.43-3.75-2.48-1.08-1.05-1.93-2.29-2.55-3.72-.63-1.43-.94-2.94-.94-4.54v-6.46c0-1.55,.31-3.04,.94-4.47,.62-1.43,1.46-2.68,2.51-3.75,1.05-1.08,2.29-1.92,3.72-2.55,1.43-.63,2.94-.94,4.54-.94h23.04c1.55,0,3.04,.31,4.47,.94,1.43,.63,2.68,1.46,3.75,2.51,1.08,1.05,1.94,2.29,2.59,3.72,.65,1.43,.98,2.94,.98,4.54v3.6h-9.46v-2.55c0-1.3-.46-2.41-1.39-3.34-.93-.92-2.04-1.39-3.34-1.39h-18.16Z"/><path class="b" d="M777.47,329.34c1.55,0,3.04,.3,4.47,.9,1.43,.6,2.68,1.43,3.75,2.48,1.08,1.05,1.93,2.29,2.55,3.72,.62,1.43,.94,2.96,.94,4.62v29.2c0,1.55-.31,3.03-.94,4.43-.63,1.4-1.46,2.64-2.51,3.72-1.05,1.08-2.29,1.93-3.72,2.55-1.43,.63-2.94,.94-4.54,.94h-25.14c-1.6,0-3.1-.3-4.5-.9-1.4-.6-2.64-1.43-3.72-2.48-1.08-1.05-1.93-2.29-2.55-3.72-.63-1.43-.94-2.94-.94-4.54v-29.2c0-1.55,.31-3.04,.94-4.47,.62-1.43,1.46-2.68,2.51-3.75,1.05-1.08,2.29-1.92,3.72-2.55,1.43-.63,2.94-.94,4.54-.94h25.14Zm2.4,12.83c0-1.3-.48-2.43-1.43-3.38-.95-.95-2.08-1.43-3.38-1.43h-20.34c-1.3,0-2.42,.48-3.34,1.43-.93,.95-1.39,2.08-1.39,3.38v26.94c0,1.3,.46,2.43,1.39,3.38,.92,.95,2.04,1.43,3.34,1.43h20.34c1.3,0,2.43-.47,3.38-1.43s1.43-2.08,1.43-3.38v-26.94Z"/><path class="b" d="M812.89,373.85h33.02v8.03h-42.41v-52.54h9.38v44.51Z"/><path class="b" d="M868.88,381.88c-1.6,0-3.12-.31-4.54-.94-1.43-.62-2.66-1.48-3.72-2.55-1.05-1.08-1.89-2.31-2.51-3.72-.63-1.4-.94-2.88-.94-4.43v-40.91h9.38v39.78c0,1.3,.46,2.43,1.39,3.38,.93,.95,2.04,1.43,3.34,1.43h19.51c1.3,0,2.43-.47,3.38-1.43s1.43-2.08,1.43-3.38v-39.78h9.38v40.91c0,1.55-.31,3.03-.94,4.43-.63,1.4-1.46,2.64-2.51,3.72-1.05,1.08-2.29,1.93-3.72,2.55-1.43,.63-2.94,.94-4.54,.94h-24.39Z"/><path class="b" d="M963.6,337.37h-19.06v44.51h-9.31v-44.51h-19.14v-8.03h47.51v8.03Z"/><path class="b" d="M984.24,329.34v52.54h-9.31v-52.54h9.31Z"/><path class="b" d="M1035.43,329.34c1.55,0,3.04,.3,4.47,.9,1.43,.6,2.68,1.43,3.75,2.48,1.08,1.05,1.93,2.29,2.55,3.72,.62,1.43,.94,2.96,.94,4.62v29.2c0,1.55-.31,3.03-.94,4.43-.63,1.4-1.46,2.64-2.51,3.72-1.05,1.08-2.29,1.93-3.72,2.55-1.43,.63-2.94,.94-4.54,.94h-25.14c-1.6,0-3.1-.3-4.5-.9-1.4-.6-2.64-1.43-3.72-2.48-1.08-1.05-1.93-2.29-2.55-3.72-.63-1.43-.94-2.94-.94-4.54v-29.2c0-1.55,.31-3.04,.94-4.47,.62-1.43,1.46-2.68,2.51-3.75,1.05-1.08,2.29-1.92,3.72-2.55,1.43-.63,2.94-.94,4.54-.94h25.14Zm2.4,12.83c0-1.3-.48-2.43-1.43-3.38-.95-.95-2.08-1.43-3.38-1.43h-20.34c-1.3,0-2.42,.48-3.34,1.43-.93,.95-1.39,2.08-1.39,3.38v26.94c0,1.3,.46,2.43,1.39,3.38,.92,.95,2.04,1.43,3.34,1.43h20.34c1.3,0,2.43-.47,3.38-1.43s1.43-2.08,1.43-3.38v-26.94Z"/><path class="b" d="M1108.76,329.34v52.54h-11.11l-26.87-40.3v40.3h-9.31v-52.54h11.11l26.87,40.31v-40.31h9.31Z"/><path class="b" d="M1137.28,337.37c-1.3,0-2.43,.48-3.38,1.43-.95,.95-1.43,2.08-1.43,3.38v4.2c0,1.3,.47,2.43,1.43,3.38,.95,.95,2.08,1.43,3.38,1.43h21.39c1.55,0,3.04,.3,4.47,.9,1.43,.6,2.68,1.43,3.75,2.48,1.08,1.05,1.92,2.29,2.55,3.72,.62,1.43,.94,2.94,.94,4.54v7.43c0,1.55-.3,3.03-.9,4.43-.6,1.4-1.43,2.64-2.48,3.72-1.05,1.08-2.29,1.93-3.72,2.55-1.43,.63-2.96,.94-4.62,.94h-24.39c-1.55,0-3.04-.31-4.47-.94-1.43-.62-2.68-1.46-3.75-2.51-1.08-1.05-1.94-2.28-2.59-3.68-.65-1.4-.98-2.9-.98-4.5v-3.6h9.46v2.48c0,1.3,.46,2.43,1.39,3.38,.93,.95,2.04,1.43,3.34,1.43h19.59c1.3,0,2.41-.47,3.34-1.43,.92-.95,1.39-2.08,1.39-3.38v-5.18c0-1.3-.46-2.43-1.39-3.38-.93-.95-2.04-1.43-3.34-1.43h-21.47c-1.55,0-3.04-.3-4.47-.9-1.43-.6-2.68-1.43-3.75-2.48-1.08-1.05-1.93-2.29-2.55-3.72-.63-1.43-.94-2.94-.94-4.54v-6.46c0-1.55,.31-3.04,.94-4.47,.62-1.43,1.46-2.68,2.51-3.75,1.05-1.08,2.29-1.92,3.72-2.55,1.43-.63,2.94-.94,4.54-.94h23.04c1.55,0,3.04,.31,4.47,.94,1.43,.63,2.68,1.46,3.75,2.51,1.08,1.05,1.94,2.29,2.59,3.72,.65,1.43,.98,2.94,.98,4.54v3.6h-9.46v-2.55c0-1.3-.46-2.41-1.39-3.34-.93-.92-2.04-1.39-3.34-1.39h-18.16Z"/></g></g></svg>